<svg width="260.000000" height="260.000000" viewBox="0 0 260 260" fill="none" xmlns="http://www.w3.org/2000/svg" xmlns:xlink="http://www.w3.org/1999/xlink">
	<desc>
			Created with Pixso.
	</desc>
	<defs>
		<clipPath id="clip3608_7964">
			<rect width="216.666672" height="216.666672" transform="translate(43.333984 79.828125)" fill="white" fill-opacity="0"/>
		</clipPath>
		<clipPath id="clip3608_7941">
			<rect width="260.000000" height="260.000000" fill="white" fill-opacity="0"/>
		</clipPath>
	</defs>
	<rect width="260.000000" height="260.000000" fill="#000000" fill-opacity="0"/>
	<g clip-path="url(#clip3608_7941)">
		<circle cx="130.000000" cy="130.000000" r="130.000000" fill="#748C70" fill-opacity="1.000000"/>
		<path d="M87.1494 252.777Q88.5303 246.523 90.418 240.691Q82.2871 231.156 78.5596 220.133Q78.1133 218.812 77.7305 217.469Q75.3193 209.031 75.3193 197.176Q75.3984 168.961 88.6064 149.793Q93.5908 142.559 100.443 136.613Q128.89 111.938 187.652 111.938L223.891 111.938Q225.547 111.938 226.719 113.109Q227.891 114.281 227.891 115.938L227.891 133.992Q227.891 134.059 227.888 134.121Q227.887 134.172 227.884 134.223Q224.166 198.988 190.264 226.34Q165.486 246.328 124.585 246.328L97.375 246.328Q97.2275 246.328 97.083 246.316Q95.8096 250.633 94.8223 255.191C92.2305 254.465 89.6729 253.66 87.1494 252.777ZM99.7578 238.328L124.585 238.328Q161.763 238.328 184.505 220.207Q216.364 194.824 219.891 133.879L219.891 119.938L187.652 119.938Q131.876 119.938 105.686 142.656Q100.112 147.492 95.9268 153.324Q83.3936 170.789 83.3193 197.199Q83.3193 207.91 85.4229 215.273Q85.5576 215.746 85.7021 216.215Q88.2432 224.492 93.6514 231.891Q99.7686 217.105 109.528 205.348Q125.132 186.547 150.043 175.477C152.09 174.566 154.413 175.461 155.323 177.508C156.232 179.555 155.339 181.879 153.292 182.789Q130.465 192.934 116.056 210.133Q105.756 222.426 99.7578 238.328Z" clip-rule="evenodd" fill="#FFFFFF" fill-opacity="1.000000" fill-rule="evenodd"/>
	</g>
</svg>
